<?xml version="1.0" encoding="UTF-8"?>
<svg id="_图层_1" data-name="图层_1" xmlns="http://www.w3.org/2000/svg" version="1.1" viewBox="0 0 550 450">
  <!-- Generator: Adobe Illustrator 29.1.0, SVG Export Plug-In . SVG Version: 2.1.0 Build 142)  -->
  <defs>
    <style>
      .st0 {
        fill: #007deb;
      }
    </style>
  </defs>
  <path class="st0" d="M389.3,197.8l.4,2.9c23.4,36.9,43.4,76,66.7,113,14.6,23.2,31.3,48.8,59.4,56.2l-.2,2.8c-1.6.4-3,1.3-4.6,1.7-10.9,2.5-68.8,1.1-81-1-21.3-3.6-36.4-38.1-46.4-55.6-18.3-32-35.4-64.9-53.5-97l-8.1.9c-2.1,24.9-23.6,45.3-44.4,56.6-28.4,15.4-69,20.4-93.5-4.6-.4-2.1,1-1.5,2.5-1.4,44.6,1.3,80.5-3.9,112-38.5,12.2-13.3,21.2-35.9,31.7-46.3,7.8-7.7,23.4-15.7,32.9-23.8,17.7-15.1,32.3-32.7,35.2-56.8,7-59.9-50-53.8-89.5-40.7-49.4,16.3-92,49.3-142.1,63.3-34.9,9.7-73.6,11-102.6-13.6,7.1,2.7,14.1,6,21.6,7.7,85.7,20.4,157.3-56.7,234.9-78.3,41.1-11.5,93.8-11.2,120,27.8-2.4-51.2-57.4-55.4-97.1-48.1-19.9,3.7-39.4,10.8-57.8,18.9-52.3,22.9-115.5,72.3-172.5,35.4,4.5.3,9,2.6,13.4,3.5,64.2,13,132.6-49.4,193.1-68.7C375.1-3.5,449.2,1,467.7,67c16.3,58.4-22.3,115-78.4,130.8Z"/>
  <path class="st0" d="M413.4,219c5.8,2.8,10.5,7.1,16.5,9.7,23,10.2,42.9,6.6,64.3-5,22.3-12.1,38.2-31.2,55-49.6,5.5,57.7-28.2,113.5-76.9,142.5l-58.8-97.6Z"/>
  <path class="st0" d="M381.3,123.9c1.4,1.4-12.4,22-16,23-6.1,1.6-23.5-.8-31.3-.6-48,1.5-125.5,32.5-147,78.3-14.5,30.9-8.3,77.2-49.2,88.9,22.3-30.2,17.3-68.9,33.8-102,28-56.3,110.2-87.2,169.9-88.6,13.2-.3,26.6,1.2,39.8,1Z"/>
  <path class="st0" d="M241.3,183.8c22.9-15.3,50-24.9,77.4-28.1-6.1,8.9-2.9,19.5,6.3,24.2-19.6,35.2-43.4,72-85.6,80.9l1.9-77.1Z"/>
  <path class="st0" d="M113.1,239.1c-2.8,10.5-6.2,20.9-7.6,31.8-2.6,18.7-1.5,38-4.6,56.6-5,29.7-25.7,63.7-55.3,73.9-28.1,9.6-49-11.4-43.2-39.4,6.3-30.5,38.6-52.9,66.1-63,.4,1.9-1.1,2.3-2,3.4-14.7,16.7-34.6,30.8-42.6,53-7.9,21.7,2.6,32.3,23.4,20.6,54.7-30.8,20.8-104.6,63-135.4s1.3-1.9,3-1.4Z"/>
  <path class="st0" d="M281.8,288.5c2.8,7.8,8.1,15.9,13.3,22.3,15.4,19.1,35.8,25.1,19.5,53.7-7.6,13.4-19.9,25.7-28.5,38.6l-16.6,29.4c-3-18.9,1.6-37,11-53.5,3.1-5.4,20.1-27.1,20.4-30,.3-2.4-10.1-9.7-12.3-11.9-11.1-10.9-23.3-25.2-24.4-41.3l17.7-7.5Z"/>
  <path class="st0" d="M317.6,117.4c-26.1,2.1-50.7,11.2-74.7,20.8l1.3-33.9c23.8-12.9,48.5-24.3,74.5-32.1l-1.1,45.2Z"/>
  <path class="st0" d="M524.6,171.6c.9,1.3-11.8,4.3-13.1,4.8-20.3,7.3-38,20.2-49.7,38.5-1.4,2.3-3.1,8.4-5,8.9-15.6-1.5-29.5-8.9-41.1-19.1,11.4-11.3,22.1-23.4,36.5-31.2,23.3-12.7,48.4-13.2,72.5-2Z"/>
  <path class="st0" d="M253.1,300.5c.1,3.5.4,7.5,1.2,10.9,6.5,28.3,33.8,35.3,9.5,68.3-12.6,17.2-31.5,31-43.7,48.8l-5.7,9.6c-1-17.7,6-32.2,16.1-46.1,4.7-6.5,24.1-26.7,25-32.2.7-3.8-9.4-18.5-11.6-23.1-5.3-11-7.8-21.2-7.4-33.5l16.7-2.6Z"/>
  <path class="st0" d="M173.3,188.5l-16.5,24.5c-27.3,34.5-8.1,93-44.1,120-1,.8-1.3,1.9-3,1.4,2.3-6.8,4.2-14,5.3-21.1,3.7-24.1,2.2-48.5,8.9-72.3,6.8-24.3,24.1-46.3,49.4-52.4Z"/>
  <path class="st0" d="M109.3,352c.1,6.5,2,12.8,2.5,19.2,1.3,16.5-.7,39.4-9,54-17.7,31.1-52.5,19.6-60.8-11,6.8,0,12.2-5.1,18.3-7.4,13.7,28.3,29.1,8.4,36.9-10.6,4.5-11,7.8-25.3,9.9-37,.4-2.5-1-8.1,2.3-7.2Z"/>
  <path class="st0" d="M223.6,303.7c-.3,7.8,0,16.2,1.7,23.8,2.8,13.5,11.9,23.4,4.8,37.9-6.5,13.3-29.3,22.1-41.7,29.7l-21.5,15.2c3.6-15.3,13.7-28.3,26.5-37.1,4.8-3.3,20.8-10.2,22.3-14.8,1.9-5.6-1.8-9.8-3.3-15-3.8-13.9-5.5-27.8-2.6-42.1l13.7,2.3Z"/>
  <path class="st0" d="M76.7,279.5c-16.8.9-50.2,3.4-54.4,24-.8,3.7.4,6.8-1.6,10.4s-11.1,12.2-12,12.6c-1.4.7-1.5.6-2.4-.6-1.4-1.9-3.9-13.5-4-16.3-.6-13.8,6.9-29.5,19.2-36.2,16.1-8.7,41.1-4.7,55.2,6.1Z"/>
  <path class="st0" d="M312.8,310.4c0,.4,2.5,1.8-.5,1.5-4-4.4-22.8-25.9-22.4-30.5,9.8-5.6,16.4-14.8,24.2-22.6.2,17.1-1.6,34.4-1.3,51.6Z"/>
  <path class="st0" d="M330.2,154.2c11.1-2.2,16.6,12.7,7.6,19.1-13.8,9.9-22.6-16.2-7.6-19.1Z"/>
</svg>