<?xml version="1.0" encoding="UTF-8"?>
<svg id="_图层_1" data-name="图层_1" xmlns="http://www.w3.org/2000/svg" version="1.1" viewBox="0 0 22 22">
  <!-- Generator: Adobe Illustrator 29.1.0, SVG Export Plug-In . SVG Version: 2.1.0 Build 142)  -->
  <path d="M14.9,10h0c.7,1.2,1.3,2.4,2.1,3.6s1,1.5,1.8,1.7h0c0,0,0,.1-.1.1-.3,0-2.1,0-2.5,0-.7-.1-1.1-1.2-1.4-1.7-.6-1-1.1-2-1.6-3h-.2c0,.8-.7,1.4-1.4,1.8s-2.1.6-2.9-.1c0,0,0,0,0,0,1.4,0,2.5-.1,3.4-1.2s.7-1.1,1-1.4.7-.5,1-.7c.5-.5,1-1,1.1-1.7.2-1.8-1.5-1.7-2.8-1.3s-2.8,1.5-4.4,1.9-2.3.3-3.2-.4c.2,0,.4.2.7.2,2.6.6,4.8-1.7,7.2-2.4s2.9-.3,3.7.9c0-1.6-1.8-1.7-3-1.5s-1.2.3-1.8.6c-1.6.7-3.6,2.2-5.3,1.1.1,0,.3,0,.4.1,2,.4,4.1-1.5,5.9-2.1s4-.4,4.6,1.6-.7,3.5-2.4,4Z"/>
  <path d="M15.7,10.7c.2,0,.3.2.5.3.7.3,1.3.2,2-.2s1.2-1,1.7-1.5c.2,1.8-.9,3.5-2.4,4.4l-1.8-3Z"/>
  <path d="M14.7,7.7s-.4.7-.5.7c-.2,0-.7,0-1,0-1.5,0-3.9,1-4.5,2.4s-.3,2.4-1.5,2.7c.7-.9.5-2.1,1-3.1.9-1.7,3.4-2.7,5.2-2.7s.8,0,1.2,0Z"/>
  <path d="M10.4,9.6c.7-.5,1.5-.8,2.4-.9-.2.3,0,.6.2.7-.6,1.1-1.3,2.2-2.6,2.5v-2.4Z"/>
  <path d="M6.4,11.3c0,.3-.2.6-.2,1,0,.6,0,1.2-.1,1.7-.2.9-.8,2-1.7,2.3s-1.5-.3-1.3-1.2,1.2-1.6,2-1.9c0,0,0,0,0,.1-.5.5-1.1.9-1.3,1.6s0,1,.7.6c1.7-.9.6-3.2,1.9-4.2s0,0,0,0Z"/>
  <path d="M11.6,12.8c0,.2.3.5.4.7.5.6,1.1.8.6,1.7s-.6.8-.9,1.2l-.5.9c0-.6,0-1.1.3-1.6s.6-.8.6-.9-.3-.3-.4-.4c-.3-.3-.7-.8-.8-1.3l.5-.2Z"/>
  <path d="M12.7,7.5c-.8,0-1.6.3-2.3.6v-1c.8-.4,1.5-.7,2.3-1v1.4Z"/>
  <path d="M19.1,9.2s-.4.1-.4.1c-.6.2-1.2.6-1.5,1.2s0,.3-.2.3c-.5,0-.9-.3-1.3-.6.4-.3.7-.7,1.1-1,.7-.4,1.5-.4,2.2,0Z"/>
  <path d="M10.7,13.2c0,.1,0,.2,0,.3.2.9,1,1.1.3,2.1s-1,1-1.3,1.5l-.2.3c0-.5.2-1,.5-1.4s.7-.8.8-1-.3-.6-.4-.7c-.2-.3-.2-.7-.2-1h.5Z"/>
  <path d="M8.3,9.7l-.5.8c-.8,1.1-.2,2.9-1.4,3.7s0,0,0,0c0-.2.1-.4.2-.6.1-.7,0-1.5.3-2.2s.7-1.4,1.5-1.6Z"/>
  <path d="M6.3,14.7c0,.2,0,.4,0,.6,0,.5,0,1.2-.3,1.7-.5,1-1.6.6-1.9-.3.2,0,.4-.2.6-.2.4.9.9.3,1.1-.3s.2-.8.3-1.1,0-.2,0-.2Z"/>
  <path d="M9.8,13.3c0,.2,0,.5,0,.7,0,.4.4.7.1,1.2s-.9.7-1.3.9l-.7.5c.1-.5.4-.9.8-1.1s.6-.3.7-.5,0-.3-.1-.5c-.1-.4-.2-.9,0-1.3h.4Z"/>
  <path d="M5.3,12.5c-.5,0-1.5.1-1.7.7s0,.2,0,.3-.3.4-.4.4c0,0,0,0,0,0,0,0-.1-.4-.1-.5,0-.4.2-.9.6-1.1s1.3-.1,1.7.2Z"/>
  <path d="M12.6,13.5s0,0,0,0c-.1-.1-.7-.8-.7-.9.3-.2.5-.5.7-.7,0,.5,0,1.1,0,1.6Z"/>
  <path d="M13.1,8.7c.3,0,.5.4.2.6-.4.3-.7-.5-.2-.6Z"/>
</svg>