<?xml version="1.0" encoding="UTF-8"?>
<svg id="_图层_1" data-name="图层 1" xmlns="http://www.w3.org/2000/svg" viewBox="0 0 550 450">
  <defs>
    <style>
      .cls-1 {
        fill: #007deb;
      }
    </style>
  </defs>
  <path class="cls-1" d="M355.32,204.3l.35,2.29c18.36,28.93,34.04,59.61,52.25,88.61,11.41,18.16,24.51,38.25,46.54,44.06l-.15,2.21c-1.25.3-2.36,1.05-3.61,1.34-8.57,1.98-53.95.82-63.52-.79-16.72-2.82-28.5-29.89-36.34-43.61-14.36-25.12-27.76-50.84-41.95-76.05l-6.36.74c-1.61,19.55-18.51,35.51-34.82,44.38-22.27,12.1-54.11,15.99-73.33-3.59-.28-1.67.8-1.16,1.97-1.13,34.97,1.02,63.07-3.05,87.8-30.15,9.54-10.45,16.64-28.17,24.85-36.29,6.12-6.05,18.35-12.3,25.82-18.69,13.87-11.87,25.34-25.6,27.56-44.51,5.51-46.97-39.16-42.14-70.18-31.87-38.69,12.81-72.1,38.68-111.39,49.65-27.35,7.64-57.67,8.64-80.45-10.66,5.58,2.1,11.07,4.68,16.92,6.07,67.17,15.98,123.29-44.45,184.17-61.41,32.24-8.99,73.52-8.8,94.04,21.79-1.84-40.14-44.96-43.43-76.11-37.71-15.59,2.87-30.86,8.45-45.32,14.79-40.97,17.97-90.54,56.67-135.23,27.75,3.52.21,7.04,2.05,10.54,2.75,50.34,10.16,103.92-38.71,151.34-53.85,43.51-13.89,101.6-10.37,116.1,41.4,12.81,45.78-17.45,90.14-61.46,102.5Z"/>
  <path class="cls-1" d="M374.18,220.94c4.54,2.22,8.24,5.54,12.92,7.62,18.03,8.02,33.6,5.18,50.4-3.9,17.48-9.46,29.96-24.43,43.09-38.85,4.33,45.21-22.14,88.94-60.28,111.67l-46.12-76.54Z"/>
  <path class="cls-1" d="M349.04,146.36c1.11,1.08-9.74,17.27-12.54,18.02-4.76,1.27-18.42-.66-24.52-.48-37.64,1.14-98.39,25.49-115.26,61.38-11.39,24.22-6.48,60.49-38.56,69.67,17.49-23.7,13.57-54.01,26.49-79.98,21.95-44.15,86.4-68.33,133.18-69.42,10.36-.24,20.84.94,31.21.81Z"/>
  <path class="cls-1" d="M239.26,193.34c17.98-12.01,39.17-19.49,60.64-21.99-4.78,6.98-2.29,15.27,4.95,19.01-15.34,27.6-33.99,56.43-67.07,63.43l1.49-60.44Z"/>
  <path class="cls-1" d="M138.8,236.71c-2.17,8.25-4.83,16.38-5.99,24.9-2.01,14.68-1.16,29.76-3.63,44.37-3.94,23.31-20.19,49.97-43.39,57.89-22.07,7.53-38.4-8.9-33.88-30.85,4.93-23.94,30.22-41.44,51.83-49.41.3,1.45-.85,1.81-1.6,2.66-11.5,13.06-27.09,24.16-33.41,41.52-6.18,16.97,2.01,25.35,18.37,16.14,42.88-24.15,16.32-82.02,49.36-106.13.79-.57,1.01-1.47,2.34-1.09Z"/>
  <path class="cls-1" d="M271.07,275.46c2.19,6.08,6.37,12.48,10.44,17.51,12.11,14.96,28.05,19.64,15.25,42.13-6,10.54-15.57,20.11-22.31,30.28l-13.03,23.03c-2.34-14.82,1.28-29.03,8.6-41.9,2.41-4.24,15.75-21.25,16-23.5.21-1.9-7.93-7.62-9.67-9.33-8.68-8.52-18.29-19.72-19.13-32.36l13.86-5.86Z"/>
  <path class="cls-1" d="M299.1,141.27c-20.42,1.67-39.72,8.77-58.56,16.28l1-26.55c18.69-10.11,38.01-19.09,58.44-25.15l-.87,35.42Z"/>
  <path class="cls-1" d="M461.38,183.81c.71,1-9.22,3.4-10.3,3.78-15.9,5.73-29.81,15.82-38.93,30.19-1.12,1.77-2.44,6.59-3.92,7-12.25-1.18-23.09-7-32.23-14.97,8.97-8.88,17.31-18.34,28.58-24.47,18.28-9.95,37.94-10.35,56.79-1.54Z"/>
  <path class="cls-1" d="M248.56,284.86c.12,2.71.32,5.91.92,8.53,5.13,22.21,26.48,27.67,7.42,53.56-9.91,13.46-24.72,24.27-34.25,38.27l-4.48,7.52c-.81-13.86,4.71-25.27,12.58-36.14,3.68-5.08,18.86-20.92,19.61-25.27.51-2.98-7.34-14.53-9.07-18.13-4.16-8.66-6.09-16.59-5.81-26.28l13.07-2.06Z"/>
  <path class="cls-1" d="M186,197.04l-12.93,19.19c-21.38,27.02-6.35,72.91-34.54,94.05-.79.59-1.03,1.46-2.34,1.08,1.81-5.34,3.31-10.96,4.16-16.55,2.86-18.87,1.73-38.03,6.95-56.68,5.32-19.02,18.92-36.26,38.7-41.09Z"/>
  <path class="cls-1" d="M135.85,325.23c.12,5.07,1.54,10.04,1.94,15.08,1.01,12.91-.56,30.88-7.07,42.32-13.86,24.35-41.14,15.33-47.69-8.62,5.32-.03,9.59-4.03,14.38-5.83,10.74,22.19,22.82,6.61,28.94-8.31,3.53-8.62,6.15-19.8,7.73-29,.33-1.93-.81-6.35,1.78-5.64Z"/>
  <path class="cls-1" d="M225.39,287.37c-.25,6.09.05,12.69,1.3,18.68,2.22,10.6,9.36,18.34,3.79,29.73-5.1,10.44-22.97,17.31-32.7,23.31l-16.84,11.92c2.81-11.98,10.75-22.2,20.8-29.09,3.75-2.57,16.3-7.97,17.51-11.59,1.47-4.37-1.43-7.68-2.56-11.77-3.01-10.91-4.35-21.75-2.05-33l10.74,1.8Z"/>
  <path class="cls-1" d="M110.29,268.35c-13.2.71-39.38,2.63-42.66,18.78-.59,2.92.28,5.36-1.25,8.16-.42.77-8.72,9.58-9.37,9.9-1.09.54-1.21.49-1.91-.47-1.1-1.51-3.06-10.59-3.16-12.78-.47-10.79,5.4-23.12,15.07-28.38,12.63-6.85,32.24-3.7,43.28,4.78Z"/>
  <path class="cls-1" d="M295.36,292.57c0,.35,1.95,1.38-.4,1.14-3.17-3.43-17.9-20.31-17.58-23.87,7.69-4.35,12.83-11.59,18.98-17.69.13,13.44-1.28,26.99-1,40.42Z"/>
  <path class="cls-1" d="M308.96,170.17c8.67-1.69,12.99,9.95,5.96,14.97-10.84,7.75-17.72-12.67-5.96-14.97Z"/>
</svg>